<?xml version="1.0" standalone="no"?>
<!DOCTYPE svg PUBLIC "-//W3C//DTD SVG 20010904//EN"
 "http://www.w3.org/TR/2001/REC-SVG-20010904/DTD/svg10.dtd">
<svg version="1.0" xmlns="http://www.w3.org/2000/svg"
 width="200.000000pt" height="200.000000pt" viewBox="0 0 200.000000 200.000000"
 preserveAspectRatio="xMidYMid meet">

<g transform="translate(0.000000,200.000000) scale(0.100000,-0.100000)"
fill="#000000" stroke="none">
<path d="M453 1653 c-4 -10 -21 -38 -39 -63 -91 -127 -81 -295 24 -403 44 -46
90 -71 180 -98 120 -37 200 -86 293 -179 89 -89 153 -192 179 -290 11 -40 13
-43 21 -23 21 56 -69 222 -181 333 -92 93 -191 153 -305 185 -116 33 -185 87
-224 175 -25 55 -27 149 -6 211 19 52 63 112 76 103 14 -8 39 15 39 36 0 31
-47 41 -57 13z"/>
<path d="M1503 1663 c-7 -2 -13 -13 -13 -23 0 -21 25 -44 39 -36 13 9 57 -51
76 -103 21 -62 19 -156 -6 -211 -39 -88 -108 -142 -224 -175 -121 -34 -322
-162 -297 -187 6 -6 30 7 67 36 67 55 145 96 237 124 91 28 136 53 180 99 105
108 115 276 24 403 -18 25 -35 53 -39 63 -6 17 -20 20 -44 10z"/>
<path d="M463 1573 c-7 -2 -13 -13 -13 -23 0 -9 -7 -34 -15 -53 -18 -44 -19
-125 -3 -181 8 -25 31 -59 59 -87 39 -40 59 -51 135 -74 221 -66 395 -214 487
-414 25 -53 36 -68 41 -56 4 10 -4 40 -18 71 -97 212 -296 373 -536 434 -83
22 -160 126 -160 217 0 44 22 94 46 105 26 12 31 37 12 56 -13 13 -16 13 -35
5z"/>
<path d="M1502 1568 c-19 -19 -14 -44 12 -56 24 -11 46 -61 46 -105 0 -91 -77
-195 -160 -217 -128 -32 -288 -116 -348 -183 -41 -44 -9 -37 54 11 82 64 162
105 268 137 76 23 96 34 135 74 28 28 51 62 59 87 16 56 15 137 -3 181 -8 19
-15 43 -15 53 0 10 -7 21 -16 24 -20 8 -18 8 -32 -6z"/>
<path d="M792 1508 c-7 -7 -12 -15 -12 -19 0 -4 -16 -30 -35 -59 -19 -28 -39
-68 -45 -88 -14 -53 -13 -142 3 -142 8 0 12 19 13 59 0 64 44 168 77 183 43
20 51 25 54 35 4 11 -23 43 -36 43 -4 0 -12 -5 -19 -12z"/>
<path d="M1166 1504 c-9 -9 -15 -21 -13 -27 3 -10 11 -15 55 -35 32 -15 76
-119 76 -183 1 -40 5 -59 14 -59 8 0 12 17 12 53 0 66 -12 107 -47 164 -15 25
-35 57 -43 71 -20 33 -34 37 -54 16z"/>
<path d="M785 1408 c-2 -7 -6 -24 -9 -38 -3 -14 -11 -48 -17 -76 -13 -55 -4
-114 18 -121 8 -3 10 11 6 52 -6 61 12 135 32 135 19 0 36 26 29 44 -7 19 -53
22 -59 4z"/>
<path d="M1156 1404 c-7 -18 10 -44 29 -44 20 0 38 -74 32 -135 -7 -65 12 -73
27 -11 7 28 5 56 -10 119 -19 74 -23 82 -46 85 -17 2 -28 -3 -32 -14z"/>
<path d="M710 1005 c-17 -20 -5 -45 21 -45 26 0 103 -55 155 -112 103 -113
154 -238 162 -397 4 -94 6 -103 19 -85 11 14 14 38 10 99 -13 191 -112 374
-261 482 -28 21 -57 45 -64 55 -16 22 -26 23 -42 3z"/>
<path d="M1243 998 c-11 -13 -46 -42 -76 -65 -37 -28 -55 -48 -51 -57 4 -11
21 -2 67 35 34 27 71 49 84 49 28 0 40 24 23 45 -17 20 -23 19 -47 -7z"/>
<path d="M707 933 c-16 -16 -4 -35 30 -49 51 -22 141 -117 180 -189 44 -85 63
-156 70 -267 3 -54 10 -98 15 -98 14 0 9 171 -8 240 -26 111 -109 242 -193
305 -22 17 -42 38 -44 48 -5 17 -37 24 -50 10z"/>
<path d="M1243 923 c-2 -10 -24 -33 -49 -52 -24 -18 -44 -40 -44 -47 0 -20 7
-18 54 21 24 19 50 35 58 35 21 0 41 27 34 45 -8 21 -47 19 -53 -2z"/>
<path d="M706 844 c-7 -19 10 -44 29 -44 21 0 93 -81 124 -140 37 -70 61 -158
61 -225 0 -30 6 -59 15 -71 13 -17 14 -14 15 41 0 137 -50 269 -138 366 -27
30 -51 62 -55 72 -8 22 -43 22 -51 1z"/>
<path d="M1243 843 c-3 -10 -20 -33 -36 -51 -21 -21 -28 -35 -21 -42 7 -7 20
0 39 20 16 16 34 30 41 30 18 0 35 26 28 44 -8 21 -43 21 -51 -1z"/>
</g>
</svg>
